<svg xmlns="http://www.w3.org/2000/svg" width="23.66" height="22.968"><path d="M22.85 3.559H5.72L4.733 1.24a.81.81 0 0 0-.56-.472L.995.02a.81.81 0 1 0-.371 1.577l2.778.654 7.113 16.72a2.679 2.679 0 1 0 4.8.269h2.918a2.68 2.68 0 1 0 2.468-1.631l-9 .013-1.11-2.609H22.85a.81.81 0 0 0 .81-.81V4.371a.81.81 0 0 0-.81-.812zm-2.149 15.672a1.059 1.059 0 1 1-1.059 1.059 1.059 1.059 0 0 1 1.059-1.059zm-7.849 0a1.059 1.059 0 1 1-1.059 1.059 1.059 1.059 0 0 1 1.059-1.059zm9.187-10.754h-5.37a.81.81 0 0 0 0 1.621h5.371v3.3H9.901L6.408 5.187h15.63z" data-name="Top Buttons"/></svg>