<svg xmlns="http://www.w3.org/2000/svg" viewBox="0 0 512 512"><path d="M256 22.145v157.344l-80.272-91.28s-30.544-39.072-.712-68.552c27.16-26.832 65-14.56 80.984 2.488z" fill="#e1549b"/><path d="M256 22.145v157.344l80.272-91.28s30.544-39.072.712-68.552c-27.16-26.832-65-14.56-80.984 2.488z" fill="#dd1a72"/><path d="M163.104 508.001C73.16 508.001 0 434.833 0 344.897c0-89.928 73.168-163.096 163.104-163.096 89.928 0 163.096 73.168 163.096 163.096-.008 89.936-73.168 163.104-163.096 163.104zm0-294.192C90.816 213.809 32 272.609 32 344.897s58.816 131.104 131.104 131.104S294.2 417.185 294.2 344.897s-58.808-131.088-131.096-131.088z" fill="#ffeaba"/><path d="M348.896 508.001c-89.928 0-163.096-73.168-163.096-163.104 0-89.928 73.168-163.096 163.096-163.096C438.832 181.809 512 254.969 512 344.897c0 89.936-73.168 163.104-163.104 163.104zm0-294.192c-72.288 0-131.096 58.808-131.096 131.096s58.808 131.096 131.096 131.096S480 417.185 480 344.897s-58.816-131.088-131.104-131.088z" fill="#ffc590"/></svg>