<svg xmlns="http://www.w3.org/2000/svg" width="190.811" height="190.811"><path d="M186.064 79.546c-4.89-5.8-11.703-8.269-15.095-5.443-1.681 1.416-.919 3.385-.39 4.832.651 1.766.98 2.926.049 4.08-1.108 1.364-3.946 1.632-6.941 1.912-3.459.332-7.368.694-10.054 2.962-7.276 6.123-7.197 16.7-6.789 21.23-3.337.407-7.276.256-11.953-.171 5.943-2.338 9.834-7.002 10.997-13.7a1.557 1.557 0 00-1.267-1.803c-.901-.152-1.668.427-1.803 1.267-1.461 8.525-7.952 13.092-18.347 12.86-.104 0-.146.085-.243.098-.402-.062-.798-.11-1.206-.158-3.215-.487-6.533-.98-9.864-1.249 5.213-2.186 8.708-6.07 11.393-10.467.226-.164.421-.384.542-.651.086-.207.135-.414.201-.628 1.498-2.63 2.789-5.379 4.013-8.037.128-.268.244-.512.378-.779.061-.061.134-.113.183-.18 4.152-6.71 9.742-8.973 15.783-6.366a1.601 1.601 0 002.058-.816c.341-.794-.036-1.69-.821-2.046-4.476-1.927-8.799-1.684-12.647.5 1.559-2.646 3.245-5.24 4.518-7.003.293.484.64.935 1.066 1.327a6.11 6.11 0 002.716 1.435 6.179 6.179 0 003.86-.317 6.267 6.267 0 002.74 2.731 6.186 6.186 0 002.758.648c.024 0 .244-.012.269-.012a6.236 6.236 0 003.501-1.291c.998.621 2.204.953 3.538.953h.023c1.023-.024 2.047-.338 2.99-.898a6 6 0 002.479-2.969 6.311 6.311 0 003.896-.024c.986-.362 1.888-.929 2.558-1.689a5.98 5.98 0 001.559-3.361c1.255-.28 2.399-.916 3.252-1.875a6.434 6.434 0 001.438-2.725 6.11 6.11 0 00-.329-3.848 6.261 6.261 0 002.716-2.743 5.967 5.967 0 00.646-3.011 6.204 6.204 0 00-1.291-3.504 6.286 6.286 0 00.962-3.629 6.268 6.268 0 00-.913-2.926 5.839 5.839 0 00-2.96-2.481 6.307 6.307 0 00-.018-3.867 6.045 6.045 0 00-1.693-2.594 6.03 6.03 0 00-3.386-1.577 6.148 6.148 0 00-1.851-3.215c-.792-.731-1.699-1.23-2.728-1.462-1.291-.292-2.68-.173-3.861.338a6.066 6.066 0 00-2.733-2.713c-.853-.429-1.814-.661-3.021-.648-1.285.058-2.49.5-3.508 1.267-.998-.63-2.204-.968-3.58-.968h-.036a6.458 6.458 0 00-2.936.91 6.105 6.105 0 00-2.484 2.987 6.174 6.174 0 00-3.86.015 6.165 6.165 0 00-2.606 1.681 6.18 6.18 0 00-1.553 3.374 6.086 6.086 0 00-3.221 1.867 5.86 5.86 0 00-1.455 2.73 6.108 6.108 0 00.316 3.86 5.984 5.984 0 00-2.71 2.729 6.45 6.45 0 00-.651 3.038 6.306 6.306 0 001.297 3.492 6.269 6.269 0 00-.98 3.617c.073 1.084.384 2.095.907 2.923a5.927 5.927 0 002.972 2.487 6.155 6.155 0 00.019 3.849 6.232 6.232 0 001.687 2.63c.591.524 1.267.886 1.985 1.154-2.156 2.92-5.396 8.144-7.234 11.703-.943 1.827-1.839 3.767-2.728 5.736-.42-3.023-1.778-5.666-4.031-7.818 2.911-.387 6.808-2.07 8.294-8.236 1.911-7.852-3.265-12.154-13.481-17.367-3.666-1.921-7.027-4.545-11.527-11.273-.061-.089-.161-.131-.237-.186-.079-.094-.131-.131-.229-.207-.325-.186-.648-.329-.962-.28h-.013-.012c-.374.048-.654.243-.91.499a.623.623 0 00-.161.204c-.052.076-.131.131-.174.225-.374.862-9.03 21.239-3.139 33.442 1.985 4.07 5.337 6.795 10.001 8.034.433.134.907.177 1.462.177 1.687 0 4.098-.618 5.79-2.326.561-.572.956-1.254 1.267-1.964 5.036 3.255 6.406 8.711 3.892 15.497-3.148 5.456-7.174 9.841-14.31 11.204-3.611.682-7.14.03-10.151-1.699 3.483-3.367 5.766-8.043 6.196-13.298.082-.874-.561-1.611-1.428-1.69-.847-.131-1.607.561-1.69 1.428-.386 4.689-2.469 8.83-5.623 11.704-3.172-2.874-5.236-7.015-5.623-11.704-.083-.874-.844-1.546-1.69-1.428a1.554 1.554 0 00-1.428 1.69c.423 5.255 2.725 9.931 6.196 13.298-3.029 1.729-6.546 2.399-10.157 1.699-7.139-1.363-11.161-5.748-14.309-11.204-2.518-6.786-1.148-12.242 3.891-15.497.311.71.697 1.41 1.267 1.964 1.69 1.708 4.083 2.326 5.791 2.326a5.47 5.47 0 001.446-.177c4.665-1.239 8.026-3.964 10.002-8.034 5.894-12.203-2.756-32.599-3.136-33.442-.042-.106-.131-.137-.167-.225-.049-.092-.119-.144-.167-.204-.25-.256-.548-.451-.91-.499h-.012-.012c-.308-.049-.648.094-.95.28-.113.07-.167.131-.268.231-.073.067-.149.106-.204.162-4.509 6.71-7.87 9.353-11.524 11.262-10.22 5.225-15.396 9.526-13.493 17.378 1.489 6.166 5.38 7.867 8.293 8.236-2.226 2.152-3.581 4.795-4.022 7.818-.892-1.952-1.778-3.909-2.731-5.736-1.839-3.559-5.087-8.783-7.246-11.703.73-.268 1.422-.643 2.009-1.172a5.959 5.959 0 001.668-2.594c.438-1.254.426-2.605.04-3.848 1.203-.466 2.238-1.34 2.941-2.47a6.166 6.166 0 00-.054-6.576c.767-.974 1.215-2.195 1.297-3.504a6.318 6.318 0 00-.648-2.987c-.6-1.202-1.546-2.183-2.712-2.749a6.02 6.02 0 00.311-3.849 5.89 5.89 0 00-1.446-2.73 6.034 6.034 0 00-3.224-1.839 6.103 6.103 0 00-1.565-3.413 6.11 6.11 0 00-2.579-1.675c-1.23-.438-2.627-.438-3.873-.024a6.444 6.444 0 00-2.5-2.989c-.88-.542-1.903-.859-3.249-.907a6.254 6.254 0 00-3.325.965c-1.011-.768-2.29-1.209-3.784-1.279-.962 0-1.891.219-2.707.648-1.19.594-2.171 1.546-2.749 2.725-1.178-.512-2.558-.63-3.86-.332a5.954 5.954 0 00-2.731 1.443 6.343 6.343 0 00-1.863 3.233 5.943 5.943 0 00-3.373 1.574 5.952 5.952 0 00-1.69 2.591 6.267 6.267 0 00-.024 3.854c-1.206.475-2.235 1.349-2.944 2.481a5.962 5.962 0 00-.911 2.962c-.064 1.291.292 2.533.959 3.604a6.145 6.145 0 00-1.279 3.505 5.856 5.856 0 00.648 2.999c.612 1.215 1.553 2.177 2.719 2.761-.49 1.185-.643 2.54-.317 3.854a6.399 6.399 0 001.428 2.713c.834.917 1.933 1.559 3.236 1.839a6.171 6.171 0 001.559 3.398 6.285 6.285 0 002.594 1.696 6.47 6.47 0 003.873.019c.478 1.196 1.352 2.243 2.506 2.974.91.554 1.939.862 3.23.898a6.246 6.246 0 003.297-.953 6.263 6.263 0 003.504 1.279c.024 0 .231.012.244.012.986 0 1.921-.219 2.768-.648a6.208 6.208 0 002.731-2.73c1.206.511 2.606.633 3.86.316a6.292 6.292 0 002.731-1.434c.423-.386.767-.843 1.066-1.328 1.267 1.763 2.944 4.345 4.503 6.991-3.849-2.183-8.181-2.426-12.638-.487-.786.356-1.16 1.251-.819 2.046.35.791 1.267 1.16 2.046.815 6.028-2.606 11.63-.356 15.783 6.366.048.088.131.125.191.192.125.256.25.5.381.767 1.203 2.658 2.493 5.407 4.01 8.038.079.207.131.401.191.627.131.28.326.487.551.651 2.704 4.396 6.171 8.281 11.396 10.468-3.334.268-6.652.767-9.877 1.248-.393.067-.804.116-1.196.158-.106-.024-.137-.098-.25-.098-10.37.214-16.879-4.323-18.337-12.86a1.53 1.53 0 00-1.803-1.266 1.535 1.535 0 00-1.267 1.802c1.16 6.698 5.051 11.362 10.994 13.7-4.683.427-8.628.585-11.953.171.399-4.536.487-15.107-6.789-21.229-2.701-2.263-6.61-2.631-10.06-2.963-2.999-.28-5.843-.548-6.945-1.912-.922-1.172-.606-2.313.061-4.079.536-1.446 1.279-3.435-.387-4.832-3.367-2.838-10.205-.344-15.089 5.443-5.026 5.968-6.241 12.906-2.78 15.811 1.352 1.146 3.215.512 4.82-.438 1.333-.791 2.661-1.498 3.998-.755 1.543.864 2.286 3.604 3.078 6.516.911 3.349 1.946 7.148 4.64 9.414 3.361 2.825 7.794 4.28 13.162 4.28 5.907 0 10.827-1.754 11.043-1.826.201-.08.375-.22.511-.384 4.963.706 10.601.158 16.654-.433 2.746-.28 5.581-.706 8.418-1.163.387-.049.755-.109 1.142-.152-3.791 2.825-6.104 6.704-6.753 11.436-1.927-2.533-4.89-4.743-9.198-4.743-1.72 0-3.583.371-5.553 1.047-9.499 3.361-10.464 11.479-8.917 26.172.548 5.328.073 10.838-4.022 20.471-.048.098-.024.207-.048.305-.021.109-.034.158-.034.256-.012.384.058.719.289 1.011h.012v.013c.305.383.752.584 1.209.584.094 0 .173-.012.268-.023 1.172-.207 28.933-5.188 37.774-19.882 2.923-4.871 3.458-10.267 1.571-15.978-.804-2.509-4.326-6.139-8.585-6.139-.63 0-1.23.195-1.839.348-.301-8.221 4.738-13.877 14.191-16.026 4.059-.231 8.056.024 11.853 1.163-1.863 1.156-3.678 2.479-5.398 4.274-4.561 4.749-6.829 10.839-6.375 17.208.5 7.026 4.241 13.736 10.264 18.438.283.207.624.335.95.335.454 0 .91-.207 1.221-.603.53-.676.393-1.668-.274-2.204-5.325-4.153-8.634-10.06-9.067-16.216-.387-5.468 1.571-10.729 5.514-14.809a25.499 25.499 0 016.908-5.006 24.153 24.153 0 016.909 5.006c3.93 4.08 5.879 9.341 5.514 14.809-.433 6.138-3.748 12.062-9.067 16.216a1.588 1.588 0 00-.268 2.204c.305.39.767.603 1.221.603.344 0 .667-.128.947-.335 6.028-4.701 9.767-11.411 10.26-18.438.451-6.363-1.814-12.459-6.369-17.208-1.72-1.767-3.534-3.118-5.398-4.274 3.796-1.151 7.792-1.395 11.859-1.163 9.45 2.155 14.485 7.806 14.182 16.026-.615-.146-1.206-.348-1.852-.348-4.244 0-7.758 3.63-8.573 6.139-1.894 5.736-1.352 11.106 1.571 15.978 8.841 14.693 36.596 19.675 37.776 19.882.092.012.171.023.269.023h.079a1.55 1.55 0 001.559-1.559c0-.384-.128-.742-.371-1.011-3.934-9.377-4.385-14.821-3.843-20.058 1.547-14.705.597-22.811-8.921-26.184-1.942-.676-3.812-1.047-5.541-1.047-4.299 0-7.271 2.21-9.206 4.743-.652-4.731-2.978-8.61-6.753-11.436.383.062.755.122 1.139.152 2.85.438 5.656.883 8.421 1.163 6.053.609 11.691 1.169 16.647.433.141.146.317.28.518.384.195.072 5.115 1.826 11.04 1.826 5.37 0 9.804-1.431 13.165-4.28 2.703-2.247 3.727-6.065 4.64-9.414.792-2.911 1.534-5.651 3.075-6.516 1.346-.73 2.673-.036 3.994.755 1.613.938 3.477 1.584 4.835.438 3.448-2.913 2.224-9.852-2.794-15.82zm-81.825-4.98c-.062 0-.101.061-.144.061a13.025 13.025 0 01-1.303-2.083c-.119-.231-.144-.511-.256-.755l9.989.975c.42.536.877 1.06 1.327 1.495l-9.613.307zm18.266-16.575l-8.938 10.948a24.531 24.531 0 01-1.261-2.35l7.605-10.193a48.917 48.917 0 012.594 1.595zm-21.409 6.491l8.117 2.825c.347.728.706 1.428 1.09 2.107l-8.766-.855c-.273-1.315-.398-2.674-.441-4.077zm.037-3.285c.063-.922.183-1.878.304-2.801l5.633 3.324c.183.597.39 1.172.615 1.751l-6.552-2.274zm3.093-11.219l-.843-.767c.146-.523.307-1.023.45-1.507.119.714.25 1.482.393 2.274zm1.011 5.163c.013.012.03 0 .043.012.161.731.362 1.474.548 2.213l-3.839-2.274c.148-.843.328-1.659.511-2.463l2.737 2.512zm22.566 12.958c-.95 3.958-3.221 5.967-6.698 5.967-.091 0-.134-.012-.213-.012l7.143-8.601a8.956 8.956 0 01-.232 2.646zm-.968-6.086l-9.237 11.131c-.743-.387-1.425-.923-2.107-1.647l9.487-11.591a11.98 11.98 0 011.857 2.107zm-9.694-7.128l-6.229 8.342a55.109 55.109 0 01-.87-2.53l4.92-7.027c.316.18.651.399.956.561.456.231.809.436 1.223.654zm-4.792-2.91l-3.416 4.868c-.25-.959-.469-1.939-.688-2.887l2.424-3.297c.566.497 1.12.902 1.68 1.316zm-3.964-3.505l-.993 1.364c-.194-1.096-.39-2.159-.548-3.154.518.606 1.048 1.267 1.541 1.79zm3.044 30.529a2.34 2.34 0 01-.646-.076c-1.218-.332-2.265-.804-3.251-1.352l7.636-.244c-.073.089-.104.18-.171.28-.937.953-2.465 1.392-3.568 1.392zm24.96-19.254c.396-.463.444-1.124.188-1.672-.256-.575-.853-.91-1.449-.91a3.04 3.04 0 01-2.612-1.474c-.256-.398-.401-.91-.438-1.434-.036-.91.341-1.775 1.018-2.411.347-.32.529-.768.505-1.23a1.575 1.575 0 00-.64-1.172c-.693-.536-1.169-1.389-1.199-2.262a3.094 3.094 0 01.341-1.522 3.073 3.073 0 012.503-1.684 1.56 1.56 0 00.956-2.682 3.016 3.016 0 01-.841-2.898c.135-.512.378-.959.719-1.352.585-.649 1.389-.987 2.399-.987h.012c.476 0 .914-.155 1.23-.511.316-.344.45-.804.384-1.267-.128-.904.14-1.8.755-2.469a3.192 3.192 0 011.291-.828c.998-.344 2.155-.113 2.978.584.463.402 1.12.487 1.681.231a1.6 1.6 0 00.907-1.434 3.093 3.093 0 011.455-2.667c.414-.268.92-.411 1.596-.451.877 0 1.681.368 2.265 1.011.316.356.743.5 1.218.512.463-.024.89-.256 1.169-.624.555-.731 1.401-1.172 2.473-1.203.463 0 .901.125 1.327.344a2.976 2.976 0 011.681 2.466c.062.612.438 1.136 1.011 1.354.591.22 1.23.089 1.669-.368a3.149 3.149 0 012.953-.853 3.12 3.12 0 011.315.716 3.045 3.045 0 01.986 2.414 1.555 1.555 0 001.766 1.602c.92-.125 1.827.155 2.466.767.39.369.664.78.835 1.267.353 1.047.134 2.18-.591 2.987-.384.46-.42 1.12-.165 1.671.244.56.847.907 1.443.907 1.06 0 2.021.539 2.594 1.456.256.405.408.91.433 1.428.043.91-.335 1.787-1.011 2.417-.341.32-.523.762-.505 1.225.023.459.249.897.621 1.172a3.057 3.057 0 011.218 2.286 2.891 2.891 0 01-.323 1.48 3.06 3.06 0 01-2.515 1.69 1.556 1.556 0 00-1.352 1.035 1.585 1.585 0 00.384 1.656 3.065 3.065 0 01.858 2.889 3.401 3.401 0 01-.731 1.364c-.572.648-1.382.986-2.398.986h-.013a1.468 1.468 0 00-1.224.524 1.598 1.598 0 00-.39 1.267c.134.865-.152 1.787-.779 2.463a3.133 3.133 0 01-1.261.84c-.986.329-2.174.113-2.965-.584a1.559 1.559 0 00-1.688-.231 1.545 1.545 0 00-.913 1.428 3.072 3.072 0 01-1.431 2.654c-.463.292-.95.424-1.639.451a3.01 3.01 0 01-2.253-.999c-.316-.344-.646-.512-1.224-.512-.45.037-.895.256-1.175.637-.548.73-1.376 1.172-2.266 1.19l-.134 1.571v-1.559c-.499 0-.962-.113-1.389-.317a3.117 3.117 0 01-1.692-2.509c-.049-.636-.438-1.16-1.035-1.364a1.389 1.389 0 00-.523-.088 1.57 1.57 0 00-1.121.475 3.063 3.063 0 01-2.898.828 3.017 3.017 0 01-1.346-.704c-.676-.624-1.035-1.47-.998-2.438a1.504 1.504 0 00-.518-1.203c-.348-.32-.798-.399-1.255-.386a3.034 3.034 0 01-2.472-.755c-.384-.356-.658-.804-.847-1.303a3.098 3.098 0 01.616-2.928zm-65.528-3.349l7.608 10.193a25.57 25.57 0 01-1.261 2.35l-8.942-10.936c.768-.524 1.66-1.059 2.595-1.607zm10.698 10.911l8.12-2.825c-.043 1.403-.167 2.762-.436 4.077l-8.756.855c.369-.679.737-1.379 1.072-2.107zm7.24-12.215l-3.852 2.274c.186-.74.384-1.482.548-2.213.013-.012.031 0 .043-.012l2.737-2.518c.195.804.363 1.626.524 2.469zm-2.25-5.114c.143-.792.274-1.559.387-2.274.137.483.292.983.436 1.507l-.823.767zM83.706 61.72l5.629-3.324c.131.922.244 1.878.308 2.801l-6.555 2.274c.219-.585.423-1.16.618-1.751zm-5.444 11.043l9.977-.975c-.1.244-.131.524-.255.755a12.258 12.258 0 01-1.291 2.083c-.064 0-.101-.061-.143-.061l-9.597-.308c.447-.434.886-.958 1.309-1.494zm1.72 6.159c-.097.024-.304.076-.648.076-1.096 0-2.624-.438-3.559-1.392-.088-.101-.113-.191-.167-.28l7.63.244c-.99.555-2.038 1.03-3.256 1.352zm3.949-32.242c-.159.996-.356 2.059-.551 3.154l-.99-1.364c.494-.523 1.024-1.184 1.541-1.79zm-3.812 3.98l2.42 3.297c-.219.947-.436 1.928-.685 2.887l-3.431-4.868c.564-.415 1.118-.82 1.696-1.316zm-4.314 3.01l4.92 7.027a44.99 44.99 0 01-.886 2.53l-6.229-8.342c.417-.231.779-.423 1.224-.654.323-.161.654-.381.971-.561zm-9.995 6.236l9.472 11.603a7.688 7.688 0 01-2.095 1.635l-9.234-11.131c.459-.697 1.065-1.404 1.857-2.107zm-2.85 8.193c-.222-.938-.274-1.814-.222-2.646l7.146 8.601c-.088 0-.131.012-.213.012-3.499 0-5.749-2.009-6.711-5.967zm-12.556-2.956a1.485 1.485 0 00-.518 1.19 3.173 3.173 0 01-.992 2.451 2.783 2.783 0 01-1.358.691c-.999.28-2.165-.073-2.896-.828a1.606 1.606 0 00-1.644-.387 1.54 1.54 0 00-1.035 1.361 3.12 3.12 0 01-1.689 2.512c-.42.204-.904.316-1.392.316v1.559l-.125-1.571a2.997 2.997 0 01-2.29-1.197c-.28-.374-.703-.6-1.172-.63h-.085c-.426 0-.861.18-1.154.511-.594.643-1.397.987-2.433.987h-.011a3.026 3.026 0 01-1.428-.405 3.192 3.192 0 01-1.458-2.688 1.536 1.536 0 00-.91-1.428c-.551-.268-1.206-.155-1.684.231-.804.679-2.046.904-2.944.597a2.854 2.854 0 01-1.303-.865 2.978 2.978 0 01-.761-2.463c.063-.438-.168-.904-.46-1.242-.295-.332-.831-.536-1.279-.536a3.045 3.045 0 01-2.271-.975 3.052 3.052 0 01-.722-1.364 3.095 3.095 0 01.846-2.913 1.521 1.521 0 00.387-1.645 1.537 1.537 0 00-1.352-1.035 3.045 3.045 0 01-2.515-1.702 2.86 2.86 0 01-.323-1.458 3.048 3.048 0 011.215-2.289c.381-.28.6-.694.625-1.173a1.538 1.538 0 00-.5-1.221c-.679-.63-1.06-1.498-1.008-2.408.024-.536.167-1.035.436-1.452.56-.91 1.522-1.44 2.643-1.44.642-.027 1.172-.35 1.434-.91a1.596 1.596 0 00-.216-1.678 3.14 3.14 0 01-.594-2.986 2.95 2.95 0 01.85-1.279c.648-.618 1.531-.898 2.469-.755.435.055.91-.088 1.251-.393a1.54 1.54 0 00.512-1.208 3.062 3.062 0 01.999-2.42c.387-.375.834-.6 1.303-.709a3.171 3.171 0 012.956.853c.417.438 1.084.582 1.663.375.575-.21.956-.743.999-1.352a3 3 0 011.708-2.488c.393-.207 1.029-.35 1.479-.313.904.024 1.72.462 2.274 1.184.28.375.7.606 1.172.63.463.012.911-.162 1.218-.511.609-.648 1.406-1.011 2.387-1.011h.012a3.08 3.08 0 011.471.45 3.086 3.086 0 011.455 2.667 1.555 1.555 0 00.895 1.428 1.656 1.656 0 001.69-.222 3.168 3.168 0 012.987-.594c.499.167.919.45 1.26.816.63.682.91 1.592.768 2.484-.067.441.173.901.475 1.233.292.35.84.536 1.285.536.889 0 1.689.362 2.274 1.011.35.374.588.815.691 1.339a2.98 2.98 0 01-.84 2.896 1.576 1.576 0 00-.387 1.656c.207.582.743.974 1.358 1.023a3.059 3.059 0 012.515 1.696c.231.463.347.962.329 1.453-.061.91-.505 1.766-1.208 2.301-.375.28-.606.707-.63 1.172-.036.463.155.91.5 1.23.679.621 1.06 1.483 1.011 2.375-.024.561-.17 1.072-.444 1.483-.554.911-1.513 1.446-2.661 1.446-.685-.048-1.172.332-1.428.911-.262.551-.162 1.194.237 1.684.691.807.911 1.939.579 2.975a2.85 2.85 0 01-.816 1.267c-.661.612-1.623.911-2.475.767-.415-.033-.872.077-1.207.397zm-18.77 46.095c-4.619 0-8.379-1.182-11.167-3.532-1.946-1.644-2.804-4.798-3.641-7.843-.959-3.556-1.876-6.929-4.558-8.418-.886-.5-1.796-.743-2.731-.743-1.75 0-3.206.841-4.345 1.522-.462.271-1.172.679-1.248.739-1.778-1.494-.91-6.551 3.172-11.41 3.249-3.858 6.884-5.587 9.024-5.587.691 0 1.261.183 1.589.368.031.244-.255 1.011-.429 1.522-.667 1.79-1.689 4.509.429 7.14 1.946 2.387 5.407 2.73 9.079 3.041 3.142.308 6.378.612 8.342 2.238 5.906 4.972 6.031 14.008 5.718 18.222-2.935-.853-5.337-2.424-7.401-5.061 1.866-2.594 1.629-6.211-.804-8.427-2.5-2.302-6.759-2.095-9.061.408-1.166 1.254-1.738 2.898-1.684 4.615a6.453 6.453 0 002.077 4.445 6.422 6.422 0 004.335 1.687c.977 0 1.933-.28 2.792-.7 1.921 2.43 4.141 4.049 6.616 5.121-1.719.348-3.814.653-6.104.653zm-5.529-9.049a3.32 3.32 0 01-1.075-2.29c-.043-.876.262-1.698.868-2.362a3.3 3.3 0 012.451-1.083c.822 0 1.607.304 2.208.864a3.302 3.302 0 01.216 4.664c-1.185 1.291-3.38 1.382-4.668.207zm44.576 44.634l-6.366-12.203c.423-1.278.685-2.521.816-3.744l7.782 11.118c.101.128.244.098.362.171a16.058 16.058 0 01-1.492 3.245c-.317.511-.761.938-1.102 1.413zm-27.742-20.472l19.08 2.18c.192 1.303.076 2.733-.356 4.269l-19.909-2.082c.22-1.76.643-3.149 1.185-4.367zm17.634 9.45a33.687 33.687 0 01-2.058 3.812l-16.885-.999a55.853 55.853 0 01-.082-4.804l19.025 1.991zm-6.835 10.388l-11.56-.377c-.031-.628-.037-1.255-.098-1.815-.094-.815-.134-1.485-.188-2.24l14.602.883a71.222 71.222 0 01-2.756 3.549zm-5.955 6.662l-5.903-.292c.186-1.304.28-2.484.332-3.617l8.958.292a214.285 214.285 0 01-3.387 3.617zm-6.528 2.801l3.541.164a122.895 122.895 0 01-4.917 4.567c.56-1.68 1.047-3.282 1.376-4.731zm5.587 2.526l-.511 3.094a77.837 77.837 0 01-4.077 1.176 140.44 140.44 0 004.588-4.27zm3.678-3.665c.95-.999 1.902-2.016 2.85-3.081l.319 7.148a62.073 62.073 0 01-4.01 1.547l.904-5.407c0-.067-.063-.128-.063-.207zm5.812-6.57a78.085 78.085 0 002.07-2.655l2.433 9.694c.012.049.067.073.094.134a69.289 69.289 0 01-4.165 2.144l-.432-9.317zm4.42-6.089a42.122 42.122 0 001.998-3.502l5.785 11.095c-1.428 1.425-3.118 2.728-4.896 3.922l-2.887-11.515zM48.931 121.09c1.617-.579 3.124-.871 4.503-.871 4.259 0 6.573 2.825 7.73 5.066l-16.237-1.863c1.056-.993 2.371-1.759 4.004-2.332zm24.112 10.936c.679 2.082.91 4.049.88 5.967l-6.929-9.889c.137-.012.301-.078.438-.078 2.786 0 5.167 2.63 5.611 4zm74.788-5.675c.548 1.218.962 2.606 1.182 4.348l-19.912 2.082c-.408-1.522-.548-2.953-.353-4.256l19.083-2.174zm-28.821 19.077a14.754 14.754 0 01-1.491-3.246c.104-.091.262-.061.347-.182l7.794-11.119a18.95 18.95 0 00.804 3.744L120.1 146.84c-.358-.492-.797-.906-1.09-1.412zm9.006-7.069a45.632 45.632 0 001.979 3.507l-2.887 11.533c-1.771-1.193-3.465-2.473-4.89-3.922l5.798-11.118zm1.918 16.623l2.437-9.694a79.67 79.67 0 002.07 2.655l-.408 9.316a61.295 61.295 0 01-4.184-2.144c.006-.066.073-.084.085-.133zm13.05-2.131a146.815 146.815 0 01-3.367-3.617l8.963-.292c.049 1.133.134 2.313.329 3.617l-5.925.292zm5.711-8.842c-.061.572-.066 1.2-.104 1.814l-11.557.365a69.9 69.9 0 01-2.753-3.538l14.627-.895c-.103.756-.134 1.439-.213 2.254zm-11.301 7.423a140.195 140.195 0 002.85 3.081c0 .079-.073.134-.062.207l.908 5.432a68.926 68.926 0 01-4.014-1.56l.318-7.16zm6.533 6.746a174.997 174.997 0 004.598 4.281 93.782 93.782 0 01-4.092-1.182l-.506-3.099zm2.029-2.362l3.556-.164c.329 1.443.815 3.051 1.376 4.762a152.52 152.52 0 01-4.932-4.598zm3.19-17.202l-16.886 1.012a33.266 33.266 0 01-2.058-3.824l19.022-1.967c.037 1.43.026 3.001-.078 4.779zm-25.806-10.588c.134 0 .292.066.438.078l-6.93 9.901a17.289 17.289 0 01.877-5.991c.44-1.358 2.826-3.988 5.615-3.988zm13.999-7.807c1.388 0 2.886.292 4.512.871 1.638.572 2.953 1.339 4.024 2.35l-16.233 1.863c1.182-2.253 3.495-5.084 7.697-5.084zm-45.982-13.238c1.428-.469 2.755-1.188 4.028-2.027 1.272.84 2.612 1.559 4.028 2.027-1.373.348-2.713.834-4.028 1.383-1.322-.549-2.664-1.035-4.028-1.383zm95.651-14.06c-.256-.013-.944-.408-1.425-.679-1.169-.683-2.594-1.522-4.342-1.522a5.54 5.54 0 00-2.728.73c-2.691 1.483-3.599 4.856-4.562 8.431-.834 3.045-1.687 6.199-3.641 7.855-2.789 2.35-6.546 3.52-11.168 3.52-2.289 0-4.384-.305-6.102-.652 2.467-1.071 4.695-2.709 6.613-5.115.883.414 1.814.695 2.795.695a6.423 6.423 0 004.335-1.688c2.606-2.387 2.777-6.454.391-9.061-2.302-2.502-6.559-2.728-9.073-.408-2.417 2.211-2.655 5.834-.792 8.428-2.033 2.631-4.463 4.214-7.398 5.061-.316-4.202-.188-13.238 5.718-18.207 1.942-1.653 5.194-1.945 8.337-2.231 3.671-.351 7.143-.67 9.085-3.057 2.125-2.631 1.126-5.325.426-7.146-.177-.5-.469-1.267-.523-1.352 1.656-1.385 6.375-.07 10.704 5.063 4.099 4.832 4.969 9.883 3.35 11.335zm-27.011 9.061a3.318 3.318 0 01.207-4.664 3.3 3.3 0 012.217-.864c.919 0 1.809.377 2.447 1.083 1.218 1.34 1.146 3.423-.194 4.652a3.32 3.32 0 01-2.229.864 3.33 3.33 0 01-2.448-1.071z"/><path d="M140.676 53.439c0 .049.036.076.036.125.603 2.107 1.607 4.089 3.117 5.772a14.443 14.443 0 0010.79 4.835c3.562 0 7.003-1.318 9.67-3.693 2.887-2.594 4.598-6.146 4.805-10.02a14.386 14.386 0 00-3.678-10.449c-1.474-1.659-3.307-2.889-5.322-3.705-.079-.024-.122-.112-.188-.112h-.092-.006c-1.662-.637-3.397-1.035-5.2-1.035-1.31 0-2.582.231-3.818.587-.03 0-.042-.027-.066-.027-.226.015-.359.134-.53.183-1.937.636-3.738 1.595-5.261 2.975a14.117 14.117 0 00-3.531 4.905c-.073.146-.201.283-.22.475 0 .037.019.052.019.076-.572 1.428-.975 2.95-1.06 4.546-.085 1.559.134 3.081.536 4.545l-.001.017zm25.306-3.154c-.055 1.02-.298 1.994-.603 2.959l-4.828-.28.334-6.053 4.793.256c.232 1.008.371 2.055.304 3.118zm-8.549 2.506l-6.059-.332.329-6.053 6.064.329-.334 6.056zm-9.17-.499l-4.726-.268c-.207-.974-.347-1.958-.292-2.987.073-1.06.316-2.082.646-3.054l4.688.256-.316 6.053zm-3.55 2.925l3.385.192-.183 3.398a9.926 9.926 0 01-1.76-1.547c-.572-.633-1.034-1.327-1.442-2.043zm6.247 5.075l.256-4.716 6.046.332-.255 4.737a12.12 12.12 0 01-6.047-.353zm9.238-.754l.183-3.462 3.483.195a11.852 11.852 0 01-1.656 1.875 10.69 10.69 0 01-2.01 1.392zm4.268-15.564l-3.416-.18.177-3.361a10.446 10.446 0 011.863 1.671c.524.566.993 1.203 1.376 1.87zm-6.278-5.045l-.256 4.689-6.059-.329.256-4.701c.804-.183 1.632-.32 2.473-.32 1.242.019 2.441.286 3.586.661zm-9.249.904l-.177 3.288-3.294-.183c.444-.624.968-1.203 1.577-1.739a10.69 10.69 0 011.894-1.366zM49.585 44.266c-.012-.144-.131-.231-.173-.365-.816-1.891-2-3.617-3.581-5.033-1.477-1.33-3.215-2.277-5.063-2.901-.204-.122-.387-.256-.633-.256h-.101c-.024 0-.04.027-.076.027-1.227-.356-2.5-.587-3.809-.587-1.802 0-3.541.399-5.2 1.035h-.1c-.088 0-.131.088-.186.113-2.009.816-3.842 2.046-5.325 3.705a14.397 14.397 0 00-3.681 10.449c.207 3.873 1.927 7.426 4.807 10.02a14.548 14.548 0 009.673 3.693c4.113 0 8.05-1.754 10.781-4.823 1.507-1.684 2.524-3.666 3.118-5.785 0-.049.049-.076.049-.125 0-.012-.012-.012-.012-.024.387-1.458.63-2.986.536-4.545-.088-1.598-.481-3.105-1.06-4.545.012-.014.036-.028.036-.053zm-24.804 6.019c-.061-1.063.095-2.11.313-3.118l4.808-.256.335 6.053-4.819.28c-.335-.965-.579-1.939-.637-2.959zm8.226-3.55l6.059-.329.332 6.053-6.056.332-.335-6.056zm9.171-.496l4.683-.256c.35.972.593 1.994.648 3.054.058 1.023-.073 2.007-.28 2.987l-4.737.268-.314-6.053zm3.142-3.301l-3.31.183-.162-3.288c.661.387 1.322.843 1.921 1.367a13.092 13.092 0 011.551 1.738zm-6.683-4.344l.256 4.7-6.074.344-.256-4.704c1.166-.381 2.344-.648 3.58-.648.859.001 1.69.119 2.494.308zm-9.11 1.839l.18 3.361-3.41.18a10.63 10.63 0 011.379-1.888c.56-.63 1.191-1.181 1.851-1.653zm-2.618 15.844l3.498-.195.18 3.498a10.005 10.005 0 01-2.006-1.428 11.321 11.321 0 01-1.672-1.875zm6.865 4.5l-.262-4.868 6.046-.332.262 4.801c-1.172.399-2.399.669-3.666.669-.808 0-1.6-.106-2.38-.27zm9.092-1.918l-.189-3.45 3.386-.192c-.405.728-.88 1.428-1.44 2.043-.542.6-1.13 1.13-1.757 1.599z"/></svg>