<svg xmlns="http://www.w3.org/2000/svg" width="218.38" height="218.38"><path d="M218.204 101.506a6.731 6.731 0 00-2.521-3.873 6.679 6.679 0 001.577-4.354 6.637 6.637 0 00-.839-3.232 6.576 6.576 0 00-3.243-2.917 6.62 6.62 0 00-.775-4.288 6.456 6.456 0 00-2.288-2.426 6.773 6.773 0 00-4.53-.949 6.62 6.62 0 00-1.946-4.179c-.817-.805-1.793-1.39-2.884-1.685a6.68 6.68 0 00-4.356.227 6.682 6.682 0 00-3.575-2.508 6.72 6.72 0 00-3.338-.092 6.743 6.743 0 00-3.876 2.55c-2.041-1.701-5.147-2.102-7.578-.751a6.75 6.75 0 00-2.905 3.24 6.805 6.805 0 00-4.282.772 6.587 6.587 0 00-2.437 2.312 6.635 6.635 0 00-.954 4.525 6.693 6.693 0 00-4.192 1.949 6.909 6.909 0 00-1.683 2.879 6.67 6.67 0 00.232 4.358 6.588 6.588 0 00-2.495 3.562 6.743 6.743 0 00-.089 3.349 6.627 6.627 0 002.536 3.865 6.667 6.667 0 00-1.577 4.327 6.548 6.548 0 00.839 3.256c.517.934 1.292 1.651 2.162 2.241-3.354 2.289-9.244 7.151-12.735 10.537-1.798 1.74-3.56 3.633-5.337 5.526-.301.327-.601.644-.907.97 1.213-4.271.712-8.453-1.582-12.266.944.264 1.957.464 3.043.464 2.626 0 6.413-1.044 9.556-6.049 4.836-7.699.976-13.958-8.369-23.503-3.386-3.491-6.154-7.691-8.659-16.822-.021-.097-.1-.145-.132-.227a3.602 3.602 0 00-.11-.2c-.189-.248-.427-.453-.743-.532-.322-.093-.617 0-.902.145-.084.042-.132.077-.2.119-.068.053-.147.073-.211.129-.717.799-17.603 19.915-15.62 35.29.659 5.075 3.291 9.178 7.831 12.189 1.07.717 2.779 1.149 4.451 1.149 2.689 0 4.819-1.055 6.186-2.911 4.862 5.695 4.478 12.551-1.018 19.443-5.537 4.904-11.834 8.443-20.345 7.314-2.073-.285-3.977-.96-5.743-1.856 1.442-1.197 2.773-2.51 3.845-4.087 3.575-5.247 4.683-12.081 3.037-18.789a1.364 1.364 0 00-1.63-1.002c-.728.18-1.17.907-.991 1.646 1.461 5.959.49 12.028-2.652 16.632-1.112 1.635-2.516 2.953-4.065 4.093-1.545-1.14-2.954-2.458-4.066-4.093-3.143-4.614-4.11-10.684-2.652-16.632a1.356 1.356 0 00-.989-1.646 1.365 1.365 0 00-1.629 1.002c-1.643 6.708-.53 13.558 3.04 18.789 1.073 1.577 2.407 2.89 3.844 4.087-1.772.896-3.673 1.571-5.746 1.856-8.511 1.139-14.802-2.395-20.332-7.304-5.513-6.871-5.906-13.764-1.031-19.459 1.371 1.856 3.499 2.911 6.188 2.911 1.68 0 3.38-.433 4.451-1.15 4.541-3.016 7.182-7.103 7.833-12.189 1.983-15.391-14.902-34.491-15.62-35.29-.061-.071-.142-.093-.211-.13-.071-.061-.118-.103-.2-.118-.277-.146-.577-.237-.901-.146-.319.079-.557.285-.747.538a.973.973 0 00-.113.19c-.042.087-.113.134-.134.232-2.505 9.131-5.276 13.331-8.656 16.81-9.342 9.558-13.202 15.817-8.375 23.506 3.138 5.015 6.921 6.049 9.553 6.049 1.094 0 2.104-.2 3.045-.464-2.291 3.802-2.792 7.989-1.582 12.266-.303-.332-.606-.644-.91-.976-1.774-1.909-3.536-3.792-5.334-5.532-3.488-3.375-9.384-8.242-12.738-10.53.87-.58 1.64-1.292 2.154-2.226a6.554 6.554 0 00.849-3.256 6.741 6.741 0 00-1.579-4.337 6.696 6.696 0 002.534-3.865 6.648 6.648 0 00-.087-3.349 6.598 6.598 0 00-2.495-3.57 6.658 6.658 0 00.232-4.361 6.89 6.89 0 00-1.685-2.879 6.72 6.72 0 00-4.185-1.949 6.635 6.635 0 00-.949-4.514 6.592 6.592 0 00-2.426-2.312 6.726 6.726 0 00-4.292-.772 6.724 6.724 0 00-2.911-3.251c-2.415-1.34-5.529-.976-7.575.762a6.836 6.836 0 00-3.868-2.55 6.393 6.393 0 00-3.343.093 6.619 6.619 0 00-3.578 2.502c-1.361-.564-2.917-.633-4.343-.234a6.71 6.71 0 00-2.879 1.69 6.633 6.633 0 00-1.954 4.187 6.686 6.686 0 00-4.525.949c-.952.572-1.746 1.442-2.289 2.421a6.602 6.602 0 00-.778 4.292 6.603 6.603 0 00-3.241 2.917 6.59 6.59 0 00-.838 3.233c0 1.637.567 3.153 1.577 4.358a6.726 6.726 0 00-2.521 3.85 6.672 6.672 0 00.076 3.343 6.664 6.664 0 002.495 3.586 6.622 6.622 0 00-.232 4.348 6.8 6.8 0 001.69 2.895 6.675 6.675 0 004.19 1.925 6.73 6.73 0 00.944 4.525 6.641 6.641 0 002.42 2.314 6.708 6.708 0 004.292.77 6.698 6.698 0 002.911 3.244c2.386 1.318 5.529.985 7.575-.744a6.729 6.729 0 003.878 2.537 6.664 6.664 0 003.336-.096 6.635 6.635 0 003.575-2.488 6.684 6.684 0 004.348.231 6.654 6.654 0 002.89-1.688 6.657 6.657 0 001.949-4.182 6.69 6.69 0 004.529-.954 6.745 6.745 0 002.297-2.41c.425-.775.641-1.593.749-2.437 2.404 1.688 6.296 4.83 9.598 7.778-5.548-1.709-10.948-.591-15.538 3.502a1.36 1.36 0 00-.103 1.914c.493.548 1.35.58 1.906.105 5.854-5.247 13.07-4.831 20.316 1.197.076.068.169.042.248.095.253.274.509.517.762.791 2.333 2.51 4.778 5.078 7.42 7.446.15.179.264.363.427.559.103.116.27.116.398.185 5.028 4.292 10.85 7.578 18.28 7.578 1.139 0 2.326-.085 3.546-.243a20.765 20.765 0 007.836-2.71 20.678 20.678 0 007.842 2.71 27.65 27.65 0 003.544.243c7.425 0 13.252-3.286 18.282-7.578.127-.079.296-.068.396-.185.164-.189.274-.375.428-.559 2.642-2.368 5.083-4.937 7.42-7.446.253-.285.506-.527.765-.791.079-.053.174-.026.247-.095 7.246-6.022 14.46-6.429 20.313-1.197a1.358 1.358 0 001.914-.105 1.363 1.363 0 00-.11-1.914c-4.593-4.108-9.993-5.221-15.541-3.502 3.307-2.964 7.198-6.096 9.604-7.778.11.844.321 1.688.743 2.431a6.625 6.625 0 002.31 2.416 6.808 6.808 0 004.524.954 6.6 6.6 0 001.936 4.171 6.565 6.565 0 002.89 1.693 6.691 6.691 0 004.361-.227 6.634 6.634 0 003.57 2.488 6.71 6.71 0 001.851.264 6.7 6.7 0 001.487-.168 6.576 6.576 0 003.882-2.537c2.03 1.698 5.157 2.083 7.567.744a6.699 6.699 0 002.916-3.244 6.709 6.709 0 004.292-.77 6.592 6.592 0 002.41-2.299 6.76 6.76 0 00.955-4.541 6.653 6.653 0 004.192-1.936 6.8 6.8 0 001.688-2.89 6.6 6.6 0 00-.232-4.342 6.65 6.65 0 002.494-3.576 6.534 6.534 0 00.078-3.316zM52.218 112.095a1.384 1.384 0 00-.931.67 1.35 1.35 0 00-.079 1.145 4.034 4.034 0 01-.232 3.406 4.058 4.058 0 01-1.368 1.445 4.06 4.06 0 01-3.974.158c-.47-.253-1.042-.18-1.463.142a1.331 1.331 0 00-.464 1.393 3.997 3.997 0 01-1.06 3.823 3.928 3.928 0 01-1.717 1.013c-1.134.332-2.37.11-3.37-.559a1.331 1.331 0 00-1.128-.18 1.365 1.365 0 00-.857.76 3.955 3.955 0 01-2.566 2.235 4.16 4.16 0 01-1.988.068 4.01 4.01 0 01-2.921-2.7 1.349 1.349 0 00-1.134-.933c-.053-.011-.103-.011-.15-.011a1.36 1.36 0 00-1.163.654c-1.067 1.793-3.475 2.521-5.381 1.455a3.9 3.9 0 01-1.978-2.753c-.077-.39-.319-.738-.669-.938s-.778-.222-1.145-.09a4 4 0 01-3.407-.232 3.794 3.794 0 01-1.437-1.376 4.002 4.002 0 01-.169-3.955 1.349 1.349 0 00-.145-1.466c-.33-.406-.854-.569-1.393-.464-1.339.337-2.842-.079-3.812-1.028a4.126 4.126 0 01-1.015-1.735 3.982 3.982 0 01.551-3.354 1.36 1.36 0 00.182-1.129 1.34 1.34 0 00-.749-.865 4.036 4.036 0 01-2.246-2.586 3.893 3.893 0 01-.045-1.978 3.948 3.948 0 012.684-2.911c.509-.161.875-.604.934-1.139a1.33 1.33 0 00-.651-1.306 3.998 3.998 0 01-1.951-3.467c0-.681.168-1.313.503-1.912a3.954 3.954 0 012.753-1.982c.396-.074.735-.33.936-.67.192-.351.227-.783.079-1.149a3.992 3.992 0 01.243-3.407A4.02 4.02 0 019.68 82.74c1.184-.762 2.718-.81 3.976-.169.475.256 1.047.19 1.458-.14.414-.335.593-.875.464-1.387a3.983 3.983 0 011.057-3.812 3.885 3.885 0 011.725-1.01 3.936 3.936 0 013.356.551c.33.222.746.301 1.137.177.382-.113.701-.388.862-.772a4.017 4.017 0 012.57-2.239 3.988 3.988 0 011.988-.045 4.05 4.05 0 012.916 2.695c.161.509.604.87 1.129.928.538.077 1.042-.192 1.315-.646 1.076-1.809 3.528-2.484 5.379-1.464a3.942 3.942 0 011.978 2.758c.069.401.319.757.67.947.356.192.778.219 1.149.084a4.056 4.056 0 013.412.245 3.85 3.85 0 011.437 1.371 3.915 3.915 0 01.156 3.942 1.36 1.36 0 00.137 1.463c.33.398.873.588 1.387.47 1.376-.335 2.855.076 3.823 1.036.48.488.835 1.086 1.02 1.722a3.98 3.98 0 01-.556 3.364 1.35 1.35 0 00-.185 1.134c.108.385.385.71.751.865a4.022 4.022 0 012.252 2.576c.189.644.206 1.339.05 1.993a3.934 3.934 0 01-2.694 2.903 1.345 1.345 0 00-.283 2.446 4.004 4.004 0 011.948 3.468 3.724 3.724 0 01-.501 1.917 3.884 3.884 0 01-2.745 1.984zm13.536-11.654l15.412 9.767c-.572 1.36-1.303 2.473-2.204 3.312l-14.85-9.205h-.005c.303-1.211.798-2.474 1.647-3.874zm4.38-5.68l12.625 8.807a31.034 31.034 0 01-.712 3.992L67.3 98.221a51.89 51.89 0 012.834-3.46zm8.003-9.753l4.422 3.153c.152 1.517.276 3.062.369 4.612l-6.645-4.915a28.65 28.65 0 001.854-2.85zm11.862 2.408l-4.379 5.06a98.041 98.041 0 00-.301-3.947c.042-.053.129-.058.161-.113l2.468-4.448c.701 1.072 1.376 2.245 2.051 3.448zm3.177 6.579c-.061.042-.132.01-.185.053l-7.259 5.6c.04-1.047.04-2.138.024-3.211l5.598-6.449a48.952 48.952 0 011.822 4.007zm2.228 8.287l-10.497 4.688c.248-1.191.448-2.428.583-3.726l8.604-6.637c.609 1.901 1.102 3.803 1.31 5.675zm-.769 7.814c-.132 0-.246-.078-.375-.036l-11.923 3.564a15.551 15.551 0 001.616-3.265l11.475-5.128c-.016.562.063 1.139-.005 1.685a14.387 14.387 0 01-.788 3.18zM84.8 84.056A144.379 144.379 0 0083.866 78a109.928 109.928 0 012.418 3.38L84.8 84.056zm-2.655.488l-2.75-1.959a43.98 43.98 0 001.787-4.306c.34 1.907.67 4.029.963 6.265zm6.63 32.662c-.509.332-1.653.695-2.961.695-1.004 0-2.536-.253-3.684-1.402l10.731-3.228a15.684 15.684 0 01-4.086 3.935zm-14.174-27.23l8.456 6.254a62.98 62.98 0 01-.056 4.211L71.99 92.763c.493-.525.912-1.01 1.458-1.551.385-.392.768-.803 1.153-1.236zm-9.171 21.439c-.87-1.387-1.397-2.71-1.577-4.076l12.764 7.905c-1.073.49-2.423.949-3.929.949-2.826 0-5.27-1.609-7.258-4.778zm58.306-1.319a14.76 14.76 0 01-.786-3.174c-.068-.557.005-1.129-.005-1.685l11.475 5.118a14.93 14.93 0 001.619 3.265l-11.924-3.56c-.136-.042-.247.036-.379.036zm.543-13.483l8.601 6.631c.132 1.298.338 2.55.58 3.726l-10.499-4.688c.216-1.872.712-3.774 1.318-5.669zm2.737-6.637l5.601 6.452a80.253 80.253 0 00.021 3.219l-7.257-5.6c-.058-.042-.121-.021-.185-.053.544-1.36 1.166-2.7 1.82-4.018zm3.412-6.03l2.463 4.448c.031.065.116.071.158.113a114.604 114.604 0 00-.306 3.947l-4.383-5.06c.692-1.181 1.371-2.344 2.068-3.448zm11.66 3.913l-6.64 4.909c.095-1.55.216-3.09.369-4.617l4.419-3.143a29.154 29.154 0 001.852 2.851zm8.991 10.367l-14.745 9.339a28.858 28.858 0 01-.712-4.002l12.625-8.802a55.111 55.111 0 012.832 3.465zm3.185 6.088l-14.855 9.205c-.901-.833-1.629-1.951-2.198-3.312l15.414-9.767c.843 1.401 1.338 2.664 1.639 3.874zm-18.035-19.77c.296-2.247.622-4.364.965-6.265a43.388 43.388 0 001.788 4.306l-2.753 1.959zm-2.653-.488l-1.477-2.665a111.247 111.247 0 012.41-3.386 128.05 128.05 0 00-.933 6.051zm12.103 32.137c-1.492 0-2.843-.459-3.929-.949l12.762-7.905c-.174 1.366-.707 2.689-1.577 4.076-1.983 3.169-4.43 4.778-7.256 4.778zm.701-23.425l-11.006 7.678a62.455 62.455 0 01-.058-4.216l8.448-6.249c.39.443.775.85 1.16 1.242.539.546.966 1.021 1.456 1.545zm-16.785 24.438a15.536 15.536 0 01-4.092-3.935l10.726 3.228c-1.139 1.149-2.674 1.402-3.681 1.402-1.297 0-2.442-.359-2.953-.695zm85.93-13.108a4.044 4.044 0 01-2.246 2.587 1.344 1.344 0 00-.749.852c-.111.385-.042.799.179 1.128.676 1.009.881 2.217.554 3.357a4.08 4.08 0 01-1.012 1.729 4.025 4.025 0 01-2.821 1.181 4.94 4.94 0 01-.997-.121c-.517-.11-1.06.053-1.393.464a1.353 1.353 0 00-.147 1.466 4.004 4.004 0 01-.169 3.966 3.795 3.795 0 01-1.434 1.366c-1.028.58-2.3.67-3.407.232a1.382 1.382 0 00-1.145.089c-.348.2-.596.549-.669.944-.211 1.171-.939 2.156-1.983 2.747-1.866 1.044-4.303.358-5.384-1.455-.27-.454-.76-.686-1.308-.644a1.355 1.355 0 00-1.14.934 3.98 3.98 0 01-2.916 2.694 3.877 3.877 0 01-1.993-.063 3.972 3.972 0 01-2.563-2.235 1.372 1.372 0 00-.859-.754 1.139 1.139 0 00-.374-.059c-.264 0-.533.085-.76.232-.991.67-2.199.907-3.38.548a3.714 3.714 0 01-1.714-1.012 3.965 3.965 0 01-1.044-3.812 1.374 1.374 0 00-.465-1.393 1.34 1.34 0 00-1.466-.143c-1.244.639-2.784.564-3.971-.158a3.887 3.887 0 01-1.371-1.45 4.002 4.002 0 01-.227-3.401 1.364 1.364 0 00-.085-1.145 1.368 1.368 0 00-.928-.67 3.967 3.967 0 01-2.769-1.998 3.686 3.686 0 01-.496-1.917 4.035 4.035 0 011.946-3.451 1.35 1.35 0 00.654-1.316 1.34 1.34 0 00-.934-1.128 3.975 3.975 0 01-2.636-4.904 4.042 4.042 0 012.252-2.571 1.35 1.35 0 00.748-.864 1.338 1.338 0 00-.179-1.134 4.02 4.02 0 01-.56-3.356 4.094 4.094 0 011.013-1.725c.976-.989 2.458-1.382 3.829-1.042a1.41 1.41 0 001.387-.469c.332-.417.38-1 .132-1.464a3.931 3.931 0 01.163-3.947 3.781 3.781 0 011.45-1.371 4.06 4.06 0 013.401-.245c.369.143.786.113 1.149-.079.349-.195.597-.546.67-.946a3.984 3.984 0 011.967-2.753c1.878-1.044 4.314-.351 5.385 1.458.279.454.775.728 1.318.646a1.318 1.318 0 001.128-.929 4.056 4.056 0 012.927-2.7 4.19 4.19 0 011.988.05 4.023 4.023 0 012.568 2.241c.158.366.475.646.859.765.391.118.802.05 1.134-.172.991-.68 2.194-.896 3.37-.545.653.166 1.233.519 1.725 1.01a3.983 3.983 0 011.049 3.807 1.36 1.36 0 00.464 1.387c.417.34.986.39 1.461.148a4.08 4.08 0 013.977.15 3.948 3.948 0 011.365 1.463 4.018 4.018 0 01.237 3.401c-.142.372-.11.794.079 1.145.201.346.544.591.939.67a3.968 3.968 0 012.752 1.978c.333.599.507 1.236.507 1.917a3.991 3.991 0 01-1.951 3.462 1.37 1.37 0 00-.654 1.315c.063.524.428.973.938 1.129a3.97 3.97 0 012.689 2.921 3.76 3.76 0 01-.054 1.962z"/><path d="M189.564 84.436c-.021-.005-.021-.031-.042-.047-.148-.055-.301.016-.448.01-.09 0-.158-.023-.248-.023-.095 0-.174.034-.264.034-.032.011-.059 0-.085.011a16.329 16.329 0 00-6.144 1.305 16.28 16.28 0 00-5.458 3.889c-.147.129-.337.222-.411.422-.011.031.011.063 0 .103a16.335 16.335 0 00-3.902 9.77c-.005.021-.026.021-.037.047-.042.114.017.211.006.319-.074 2.339.306 4.707 1.286 6.998a16.354 16.354 0 0015.02 9.869c2.235 0 4.413-.454 6.48-1.351 8.279-3.586 12.103-13.233 8.522-21.513-2.488-5.787-8.041-9.564-14.275-9.843zm9.952 24.732l-5.959-2.365 2.927-7.393 5.916 2.36a13.706 13.706 0 01-2.884 7.398zm-11.819 5.089a13.469 13.469 0 01-7.377-2.984l2.336-5.88 7.394 2.932-2.353 5.932zm-4.05-11.369l2.927-7.399 7.394 2.932-2.927 7.394-7.394-2.927zm-5.383-10.686l5.801 2.299-2.927 7.394-5.838-2.318a13.656 13.656 0 012.964-7.375zm11.585-4.968a13.506 13.506 0 017.404 2.905l-2.289 5.767-7.388-2.932 2.273-5.74zm12.456 11.583l-4.836-1.912 1.904-4.801c.791.973 1.481 2.041 1.998 3.235.496 1.134.76 2.294.934 3.478zM183.41 88.204c1.134-.485 2.315-.773 3.512-.928l-1.872 4.704-4.714-1.875c.943-.728 1.935-1.397 3.074-1.901zm-8.053 14.299l4.788 1.901-1.919 4.849c-.754-.933-1.424-1.948-1.914-3.076-.527-1.206-.796-2.435-.955-3.674zm18.895 10.785c-1.176.517-2.399.791-3.648.959l1.945-4.925 4.915 1.935c-.965.79-2.004 1.508-3.212 2.031zM45.839 99.94c-.005-.016-.026-.026-.037-.039a16.456 16.456 0 00-3.9-9.78c-.011-.037.016-.068 0-.105-.082-.195-.264-.298-.417-.422a16.19 16.19 0 00-5.458-3.884 16.323 16.323 0 00-6.146-1.305c-.026-.011-.053 0-.082-.011-.092 0-.171-.034-.264-.034-.087 0-.161.011-.248.011-.153.013-.298-.063-.448 0-.021.013-.021.044-.044.05-6.226.285-11.786 4.055-14.289 9.812-3.578 8.271.245 17.921 8.522 21.507a16.22 16.22 0 006.486 1.351 16.354 16.354 0 0015.021-9.872c.988-2.283 1.36-4.653 1.286-6.992.002-.081.061-.184.018-.287zm-17.513 8.38l7.394-2.933 2.333 5.88a13.555 13.555 0 01-7.377 2.985l-2.35-5.932zm-.994-2.505l-2.927-7.394 7.394-2.932 2.927 7.399-7.394 2.927zm-8.472 3.353a13.685 13.685 0 01-2.885-7.409l5.92-2.354 2.927 7.388-5.962 2.375zM30.8 92.979l-7.394 2.932-2.283-5.766a13.448 13.448 0 017.403-2.906l2.274 5.74zm3.509 1.511l5.801-2.299a13.689 13.689 0 012.969 7.375l-5.837 2.317-2.933-7.393zm3.715-4.374l-4.712 1.875-1.87-4.715c1.2.169 2.381.443 3.515.941 1.145.491 2.139 1.16 3.067 1.899zM19 92.098l1.901 4.802-4.833 1.912c.168-1.184.438-2.354.928-3.488.515-1.185 1.205-2.252 2.004-3.226zm1.906 19.158l4.915-1.935 1.949 4.925c-1.248-.168-2.479-.442-3.655-.959-1.205-.522-2.246-1.24-3.209-2.031zm19.251-2.004l-1.922-4.849 4.785-1.901c-.158 1.239-.427 2.468-.946 3.673-.496 1.129-1.171 2.145-1.917 3.077z"/></svg>