<svg xmlns="http://www.w3.org/2000/svg" width="240.688" height="240.688"><path d="M239.359 122.671c-11.009-1.714-17.421 6.345-24.874 15.673-1.693 2.107-3.301 4.36-4.944 6.649-.165.231-.354.463-.512.707.67-5.56-1.242-10.632-5.663-14.712.207-.427.487-.804.615-1.267a6.881 6.881 0 00-.743-5.176c-1.851-3.117-6.235-4.25-9.377-2.387a6.724 6.724 0 00-3.13 4.177 6.8 6.8 0 00.749 5.2 6.842 6.842 0 005.857 3.337 6.938 6.938 0 003.495-.962c.22-.128.365-.354.566-.512 5.669 5.358 6.107 12.599 1.279 20.472-5.17 5.907-11.302 10.485-20.393 10.485h-.165a18.672 18.672 0 01-11.946-4.341c4.798-2.941 8.963-6.875 12.147-11.667 5.827-8.701 7.903-19.193 5.846-29.487a1.557 1.557 0 00-.676-.999c3.105-.305 7.167-.743 7.502-7.079.128-2.53-1.693-4.932 2.447-11.435 0 0-4.786-.341-8.622 3.374-.627-4.506-3.934-5.952-2.655-10.498 0 0-8.896 2.923-5.967 11.752-4.737-2.737-9.365-1.147-9.365-1.147 5.633 5.228 4.542 8.013 5.322 10.439 2.033 6.333 6.369 5.325 9.523 4.82-.39.356-.658.828-.549 1.376 1.888 9.478-.024 19.11-5.37 27.136-3.118 4.664-7.24 8.33-11.947 11.059-3.678-4.396-5.425-10.4-4.762-16.66a24.474 24.474 0 001.827-8.866c2.606-1.419 8.189-5.56.201-12.367-1.443-1.218-4.726-3.766-6.156-7.882 0 0-8.757 18.69 2.801 20.518a21.468 21.468 0 01-3.763 11.508c-3.331 4.848-8.397 8.16-14.255 9.329-4.695.919-9.475.012-13.381-2.606-2.671-1.777-4.665-4.201-5.943-7.002-.487-1.328-.971-2.655-1.267-4.08 0-.012-.012-.012-.012-.024a12.995 12.995 0 012.146-9.56c2.058-2.984 5.169-5.018 8.781-5.736 2.825-.561 5.724-.012 8.11 1.57 2.29 1.523 3.836 3.824 4.372 6.467.858 4.299-2.058 8.525-6.516 9.427-.84.17-1.388.986-1.211 1.839.164.828.913 1.389 1.839 1.218 6.119-1.242 10.138-7.112 8.951-13.092-.683-3.478-2.729-6.467-5.7-8.458-3.075-2.058-6.795-2.773-10.448-2.034-4.375.892-8.16 3.355-10.672 6.959v-2.569c2.013-1.278 14.045-9.414 13.825-21.425-.104-3.727-2.539-7.115-4.7-10.104-1.918-2.634-3.721-5.127-3.389-7.042.28-1.608 1.458-2.168 3.389-2.887 1.504-.584 3.58-1.364 3.525-3.629-.098-4.664-6.284-8.193-14.41-8.193l-.499.013c-5.325.101-10.181 1.802-12.702 4.421-1.251 1.315-1.9 2.825-1.863 4.359.049 2.262 2.152 2.959 3.693 3.471 1.942.652 3.148 1.176 3.489 2.765.393 1.9-1.291 4.457-3.084 7.17-2.034 3.069-4.348 6.552-4.29 10.275.204 10.888 10.437 18.194 13.899 20.393v4.073c-2.366-4.006-6.336-7.087-11.292-8.062-3.611-.703-7.271-.049-10.321 1.942-3.06 1.985-5.13 5.018-5.842 8.549-.585 2.917.024 5.883 1.714 8.361 1.689 2.472 4.253 4.146 7.204 4.736.898.141 1.677-.383 1.833-1.199.155-.846-.387-1.687-1.215-1.845a8.295 8.295 0 01-5.252-3.446c-1.202-1.766-1.665-3.909-1.227-5.992.536-2.697 2.131-5.023 4.481-6.539a10.777 10.777 0 018.013-1.511c7.258 1.456 12.047 8.251 10.9 15.296 0 .013-.012.024-.012.037-.292 1.431-.78 2.758-1.267 4.086-3.254 7.045-11.204 11.234-19.336 9.596-10.406-2.07-17.688-10.924-18.027-20.837 11.554-1.827 2.807-20.511 2.807-20.511-1.44 4.117-4.725 6.653-6.159 7.913-7.989 6.79-2.414 10.931.204 12.343.058 2.569.6 5.036 1.41 7.411-.387.316-.661.755-.63 1.303.694 6.145-.977 12.062-4.509 16.459-12.501-7.685-19.577-22.591-16.535-37.802.125-.581-.161-1.06-.584-1.422 3.142.497 7.526 1.559 9.563-4.807.779-2.439-.354-5.212 5.319-10.44 0 0-4.637-1.607-9.353 1.148 2.92-8.83-5.979-11.752-5.979-11.752 1.291 4.545-2.024 5.992-2.667 10.513-3.812-3.73-8.601-3.374-8.601-3.374 4.116 6.503 2.32 8.915 2.451 11.448.332 6.36 4.442 6.759 7.545 7.075a1.464 1.464 0 00-.74 1.011c-3.249 16.298 4.177 32.264 17.403 40.728-3.367 2.99-7.657 4.725-12.385 4.75h-.161c-9.061 0-15.208-4.573-20.396-10.498-4.808-7.904-4.384-15.113 1.285-20.46.207.146.35.384.566.512a6.824 6.824 0 003.499.95 6.83 6.83 0 005.854-3.325 6.834 6.834 0 00.749-5.212 6.748 6.748 0 00-3.13-4.178c-3.136-1.863-7.52-.715-9.377 2.412a6.863 6.863 0 00-.743 5.163c.131.45.387.841.618 1.255-4.421 4.079-6.354 9.17-5.663 14.711-.161-.244-.341-.475-.511-.706-1.644-2.29-3.255-4.543-4.944-6.638-7.456-9.328-13.898-17.394-24.877-15.686-.855.134-1.428.926-1.297 1.797.131.87.91 1.431 1.784 1.291 7.806-1.279 12.745 3.245 19.57 11.575-5.611-2.437-11.448-1.912-16.815 1.802a1.554 1.554 0 00-.393 2.187 1.57 1.57 0 002.168.384c6.884-4.774 14.468-3.35 21.333 4.024.073.062.155.049.228.098.244.359.493.651.737.986.572.792 1.172 1.607 1.732 2.43a11.639 11.639 0 00-5.312-.657c-.061-.524-.061-1.061-.305-1.56-.84-1.681-2.53-2.801-3.797-3.044-14.945-2.753-16.176 21.811-16.212 22.797a1.56 1.56 0 001.559 1.62c.274 0 .548-.073.792-.219 4.403-2.606 7.015-3.19 9.579-3.246 6.479-.183 11.947-.834 13.219-6.825.512-2.424.167-4.458-1.004-6.077 3.684 1.047 7.045 4.25 10.75 8.208.143.14.375.14.561.243 4.789 4.104 10.555 7.003 18.207 7.003h.207c5.849-.037 11.122-2.289 15.15-6.223a39.506 39.506 0 0010.631 3.769c2.083.427 4.165.64 6.211.64 12.602 0 24.037-7.63 29.045-19.169l-.058 14.347c0 .852.7 1.559 1.559 1.559a1.56 1.56 0 001.559-1.559v-13.129c5.276 10.839 16.289 17.927 28.431 17.927 2.058 0 4.141-.207 6.223-.621 3.502-.694 6.845-1.888 9.962-3.446 3.982 3.714 9.109 5.846 14.778 5.882h.189c7.66 0 13.426-2.917 18.206-7.003.195-.104.408-.104.566-.243 3.708-3.988 7.069-7.161 10.76-8.208-1.169 1.607-1.504 3.641-1.011 6.064 1.272 5.992 6.74 6.637 13.219 6.82 2.564.091 5.176.657 9.579 3.264a1.55 1.55 0 001.589 0c.493-.293.779-.828.761-1.4-.036-.986-1.071-25.551-16.221-22.798-1.249.243-2.966 1.364-3.788 3.044-.243.5-.243 1.035-.311 1.559-1.869-.194-3.623.062-5.315.646.584-.805 1.169-1.607 1.741-2.412.244-.341.493-.645.737-.986.072-.049.17-.036.231-.098 6.862-7.355 14.431-8.78 21.33-4.006.7.456 1.681.305 2.18-.402a1.578 1.578 0 00-.396-2.168c-5.39-3.732-11.223-4.256-16.824-1.802 6.838-8.33 11.752-12.873 19.589-11.594.907.134 1.644-.451 1.766-1.291.108-.855-.459-1.658-1.317-1.792zm-38.404 6.283a3.736 3.736 0 01-1.705 2.277c-1.729 1.012-4.073.402-5.091-1.291a3.677 3.677 0 01-.396-2.824 3.72 3.72 0 011.692-2.277 3.752 3.752 0 011.912-.524c1.328 0 2.509.683 3.209 1.827a3.89 3.89 0 01.379 2.812zm-160.864-2.812a3.71 3.71 0 013.212-1.827c.661 0 1.328.183 1.909.524a3.636 3.636 0 011.696 2.277c.244.961.112 1.96-.399 2.824-1.017 1.693-3.355 2.303-5.075 1.291a3.64 3.64 0 01-1.717-2.277 3.607 3.607 0 01.374-2.812zm-13.293 31.297c-.612 2.825-2.226 4.116-10.263 4.348-2.177.062-4.701.396-8.46 2.277.654-5.535 2.986-17.202 10.656-17.202.518 0 1.06.08 1.62.141.28.066 1.172.566 1.586 1.382.131.269.167.536.149.816-2.509.883-5.194 2.521-8.144 5.255-.636.584-.655 1.57-.088 2.204.6.621 1.583.67 2.208.085 2.646-2.436 4.99-3.86 7.146-4.555.244.031 2.11.323 3.105 1.688.641.846.802 2.052.485 3.561zm58.146 4.543a35.614 35.614 0 01-9.118-3.167c2.974-3.896 4.704-8.719 4.944-13.895 3.604 5.65 9.447 9.949 16.617 11.374 1.397.28 2.771.396 4.146.396 2.944 0 5.757-.664 8.345-1.814-6.505 6.01-15.639 8.981-24.934 7.106zm34.653-40.627c-3.87-2.777-10.616-8.729-10.781-16.648-.049-2.764 1.891-5.687 3.766-8.513 2.171-3.273 4.229-6.36 3.538-9.533-.731-3.474-3.629-4.433-5.55-5.063-.576-.183-1.428-.475-1.559-.587-.024-.691.317-1.428.999-2.131 1.937-2.021 6.053-3.385 10.51-3.474l.438-.012c6.598 0 11.243 2.719 11.316 5.045-.158.219-1.011.536-1.571.743-1.891.715-4.746 1.799-5.325 5.286-.56 3.218 1.62 6.211 3.921 9.404 1.97 2.737 4.028 5.587 4.107 8.342.14 8.318-7.101 14.821-10.711 17.534v-8.717c3.294-.755 5.788-3.604 5.712-7.127-.089-4.01-3.273-7.14-7.414-7.14-4.028.088-7.212 3.41-7.146 7.413.076 3.398 2.539 6.104 5.736 6.848l.014 8.33zm2.165-11.268c-.192-.113-.387-.256-.624-.256-.231 0-.399.143-.618.256-1.97-.304-3.529-1.939-3.56-3.958-.042-2.302 1.784-4.217 4.165-4.265a4.138 4.138 0 014.165 4.064c.059 2.129-1.488 3.843-3.528 4.159zm34.973 51.895c-9.219 1.863-18.285-1.072-24.782-6.966a20.549 20.549 0 008.129 1.692c1.406 0 2.807-.134 4.214-.414 6.369-1.267 11.831-4.805 15.631-9.913.48 4.762 2.271 9.158 5.096 12.75-2.631 1.243-5.353 2.266-8.288 2.851zm57.567-8.111c1.005-1.376 2.91-1.656 3.13-1.681 2.167.688 4.512 2.119 7.143 4.543.651.597 1.613.535 2.21-.086.585-.65.548-1.631-.091-2.21-2.947-2.728-5.614-4.366-8.136-5.249a1.532 1.532 0 01.152-.815c.396-.816 1.303-1.315 1.571-1.37a9.559 9.559 0 011.626-.152c7.666 0 9.998 11.667 10.655 17.195-3.763-1.875-6.302-2.21-8.464-2.271-8.037-.231-9.663-1.522-10.266-4.348-.316-1.486-.151-2.691.47-3.556z"/></svg>